<?xml version="1.0" encoding="utf-8"?>
<!-- Generator: Adobe Illustrator 16.0.0, SVG Export Plug-In . SVG Version: 6.00 Build 0)  -->
<!DOCTYPE svg PUBLIC "-//W3C//DTD SVG 1.1//EN" "http://www.w3.org/Graphics/SVG/1.1/DTD/svg11.dtd">
<svg version="1.1" xmlns="http://www.w3.org/2000/svg" xmlns:xlink="http://www.w3.org/1999/xlink" x="0px" y="0px"
	 height="40px" viewBox="0 0 159 145.5" enable-background="new 0 0 159 145.5" xml:space="preserve">
<g id="Layer_1" display="none">
	
		<image display="inline" overflow="visible" width="700" height="400" xlink:href="pf-excelcompressors-logo-design.jpg"  transform="matrix(1 0 0 1 -53.605 -121.0957)">
	</image>
</g>
<filter id="greyscale">
<feColorMatrix type="matrix" values="0.3333 0.3333 0.3333 0 0
0.3333 0.3333 0.3333 0 0
0.3333 0.3333 0.3333 0 0
0 0 0 1 0" />
</filter>
<g id="Layer_2">
	<path class="kiwi" fill="#894C03" d="M125.3,29.7c-12.7-13.2-31.8-20.2-50-19.2c-8.6,0.4-12.7,9.5-17.9,15.8c-4.2,5.1-0.7,7.8,2.2,13.7
		C76.2,20.5,103.4,18.4,125.3,29.7z"/>
	<path class="kiwi" fill="#DD9B0A" d="M71.1,10.9C53.2,28.8,61,57.6,75.5,75c15,18,54.2,47.2,76.4,21.9c-4.7,46.1-66.3,39.2-91.4,16
		C30.9,85.7,15,18.7,71.1,10.9z"/>
	<path class="kiwi" fill="#052338" d="M85.1,129.9c-22.3,4.1-49.3,1.8-56.3-24.5c-3.5,7.4-4.9,23.2,1.5,29.3C43.1,146.7,72.5,135.9,85.1,129.9z"
		/>
	<path class="kiwi" fill="#0769A0" d="M119.7,84.7c-2.5-33.5-32.6-48-62.3-37.6c-33.5,11.8-74.6,63.3-27,87.6C12.3,93.6,94.6,46.3,119.7,84.7z"/>
</g>
</svg>
